<?xml version="1.0" encoding="UTF-8" standalone="no"?>
<svg
   role="img"
   viewBox="0 0 24 24"
   version="1.1"
   id="svg6"
   sodipodi:docname="facebook.svg"
   inkscape:version="1.1.1 (3bf5ae0d25, 2021-09-20, custom)"
   xmlns:inkscape="http://www.inkscape.org/namespaces/inkscape"
   xmlns:sodipodi="http://sodipodi.sourceforge.net/DTD/sodipodi-0.dtd"
   xmlns="http://www.w3.org/2000/svg"
   xmlns:svg="http://www.w3.org/2000/svg">
  <defs
     id="defs10" />
  <sodipodi:namedview
     id="namedview8"
     pagecolor="#ffffff"
     bordercolor="#666666"
     borderopacity="1.0"
     inkscape:pageshadow="2"
     inkscape:pageopacity="0.0"
     inkscape:pagecheckerboard="0"
     showgrid="false"
     inkscape:zoom="16"
     inkscape:cx="5.875"
     inkscape:cy="18.1875"
     inkscape:window-width="1920"
     inkscape:window-height="1029"
     inkscape:window-x="0"
     inkscape:window-y="0"
     inkscape:window-maximized="1"
     inkscape:current-layer="svg6" />
  <title
     id="title2">Facebook</title>
  <path
     d="M24 12.073c0-6.627-5.373-12-12-12s-12 5.373-12 12c0 5.99 4.388 10.954 10.125 11.854v-8.385H7.078v-3.47h3.047V9.43c0-3.007 1.792-4.669 4.533-4.669 1.312 0 2.686.235 2.686.235v2.953H15.83c-1.491 0-1.956.925-1.956 1.874v2.25h3.328l-.532 3.47h-2.796v8.385C19.612 23.027 24 18.062 24 12.073z"
     id="path4" />
  <path
     style="fill:#ffffff;stroke:#ffffff;stroke-width:0.0625;stroke-opacity:1"
     d="M 9.0625,23.661298 C 5.5556676,22.762129 2.7178227,20.410357 1.1598207,17.112207 -0.77264287,13.021356 -0.17024419,8.1170406 2.7013053,4.5625 3.1929734,3.9538899 4.2494992,2.9345593 4.84375,2.4954807 c 1.5941962,-1.177916 3.274745,-1.8914122 5.3125,-2.25548264 0.631686,-0.11285851 3.055814,-0.11285851 3.6875,0 2.191806,0.39159354 4.100897,1.25050694 5.719846,2.57339784 0.644383,0.526544 1.687465,1.6407041 2.168412,2.3161736 1.050094,1.4748099 1.722456,3.0827742 2.062678,4.9329305 0.176366,0.959089 0.191467,2.977889 0.02899,3.875 -0.240758,1.329304 -0.526775,2.219832 -1.073936,3.34375 -1.417879,2.912446 -3.86884,5.082725 -6.905986,6.115119 -0.569148,0.193467 -1.685864,0.478631 -1.874338,0.478631 -0.04192,0 -0.06316,-1.398056 -0.06316,-4.15625 V 15.5625 h 1.40625 c 0.927681,0 1.40625,-0.02202 1.40625,-0.0647 0,-0.03558 0.1125,-0.79397 0.25,-1.685302 0.1375,-0.891333 0.25,-1.649718 0.25,-1.685302 0,-0.04298 -0.557829,-0.0647 -1.661366,-0.0647 h -1.661365 l 0.0212,-1.421875 C 13.938189,9.2348156 13.940341,9.2151137 14.107688,8.8969487 14.486429,8.1768719 14.92878,8 16.350927,8 H 17.34375 V 6.4770812 4.9541627 l -0.546875,-0.074949 c -0.300781,-0.041222 -1.039671,-0.091007 -1.641976,-0.1106342 -0.892193,-0.029073 -1.193285,-0.015823 -1.625,0.071511 -1.711275,0.3461831 -2.800022,1.3704721 -3.259113,3.0661595 -0.120537,0.4452137 -0.138269,0.7003125 -0.161829,2.328125 L 10.082499,12.0625 H 8.5568744 7.03125 v 1.75 1.75 h 1.53125 1.53125 v 4.15625 c 0,3.91769 -0.0063,4.156096 -0.109375,4.153564 -0.060156,-0.0015 -0.475,-0.09643 -0.921875,-0.211016 z"
     id="path1166" />
</svg>
