<?xml version="1.0" encoding="UTF-8" standalone="no"?>
<svg
   role="img"
   viewBox="0 0 24 24"
   version="1.1"
   id="svg6"
   sodipodi:docname="instagram.svg"
   inkscape:version="1.1.1 (3bf5ae0d25, 2021-09-20, custom)"
   xmlns:inkscape="http://www.inkscape.org/namespaces/inkscape"
   xmlns:sodipodi="http://sodipodi.sourceforge.net/DTD/sodipodi-0.dtd"
   xmlns="http://www.w3.org/2000/svg"
   xmlns:svg="http://www.w3.org/2000/svg">
  <defs
     id="defs10" />
  <sodipodi:namedview
     id="namedview8"
     pagecolor="#ffffff"
     bordercolor="#666666"
     borderopacity="1.0"
     inkscape:pageshadow="2"
     inkscape:pageopacity="0.0"
     inkscape:pagecheckerboard="0"
     showgrid="false"
     inkscape:zoom="16"
     inkscape:cx="14.5"
     inkscape:cy="15.6875"
     inkscape:window-width="1920"
     inkscape:window-height="1029"
     inkscape:window-x="0"
     inkscape:window-y="0"
     inkscape:window-maximized="1"
     inkscape:current-layer="svg6" />
  <title
     id="title2">Instagram</title>
  <path
     d="M12 0C8.74 0 8.333.015 7.053.072 5.775.132 4.905.333 4.14.63c-.789.306-1.459.717-2.126 1.384S.935 3.35.63 4.14C.333 4.905.131 5.775.072 7.053.012 8.333 0 8.74 0 12s.015 3.667.072 4.947c.06 1.277.261 2.148.558 2.913.306.788.717 1.459 1.384 2.126.667.666 1.336 1.079 2.126 1.384.766.296 1.636.499 2.913.558C8.333 23.988 8.74 24 12 24s3.667-.015 4.947-.072c1.277-.06 2.148-.262 2.913-.558.788-.306 1.459-.718 2.126-1.384.666-.667 1.079-1.335 1.384-2.126.296-.765.499-1.636.558-2.913.06-1.28.072-1.687.072-4.947s-.015-3.667-.072-4.947c-.06-1.277-.262-2.149-.558-2.913-.306-.789-.718-1.459-1.384-2.126C21.319 1.347 20.651.935 19.86.63c-.765-.297-1.636-.499-2.913-.558C15.667.012 15.26 0 12 0zm0 2.16c3.203 0 3.585.016 4.85.071 1.17.055 1.805.249 2.227.415.562.217.96.477 1.382.896.419.42.679.819.896 1.381.164.422.36 1.057.413 2.227.057 1.266.07 1.646.07 4.85s-.015 3.585-.074 4.85c-.061 1.17-.256 1.805-.421 2.227-.224.562-.479.96-.899 1.382-.419.419-.824.679-1.38.896-.42.164-1.065.36-2.235.413-1.274.057-1.649.07-4.859.07-3.211 0-3.586-.015-4.859-.074-1.171-.061-1.816-.256-2.236-.421-.569-.224-.96-.479-1.379-.899-.421-.419-.69-.824-.9-1.38-.165-.42-.359-1.065-.42-2.235-.045-1.26-.061-1.649-.061-4.844 0-3.196.016-3.586.061-4.861.061-1.17.255-1.814.42-2.234.21-.57.479-.96.9-1.381.419-.419.81-.689 1.379-.898.42-.166 1.051-.361 2.221-.421 1.275-.045 1.65-.06 4.859-.06l.045.03zm0 3.678c-3.405 0-6.162 2.76-6.162 6.162 0 3.405 2.76 6.162 6.162 6.162 3.405 0 6.162-2.76 6.162-6.162 0-3.405-2.76-6.162-6.162-6.162zM12 16c-2.21 0-4-1.79-4-4s1.79-4 4-4 4 1.79 4 4-1.79 4-4 4zm7.846-10.405c0 .795-.646 1.44-1.44 1.44-.795 0-1.44-.646-1.44-1.44 0-.794.646-1.439 1.44-1.439.793-.001 1.44.645 1.44 1.439z"
     id="path4" />
  <path
     style="fill:#ffffff;stroke-width:0.0625"
     d="M 8.65625,23.934173 C 6.4171306,23.886921 5.7338262,23.816708 4.7634948,23.53417 2.3182441,22.822171 0.70507675,20.958991 0.25095049,18.32226 0.09160484,17.397073 0.03482855,15.730352 0.03452033,11.96875 0.03411386,7.0082281 0.11514988,5.8024184 0.53314313,4.5492816 0.88678681,3.4890638 1.3907925,2.678478 2.1507018,1.9477832 3.1245713,1.0113537 4.3122202,0.46277278 5.90625,0.21307686 c 1.5174394,-0.23769846 10.664936,-0.23748432 12.1875,2.85e-4 2.711719,0.42347277 4.565996,1.91652274 5.368733,4.32286324 0.422731,1.2672092 0.502584,2.4570818 0.502996,7.4950249 4.38e-4,4.974204 -0.08018,6.165071 -0.502996,7.432524 -0.675482,2.024875 -2.188275,3.485888 -4.212483,4.068298 -1.014497,0.291893 -1.587262,0.345349 -4.34375,0.405397 -2.837301,0.06181 -3.173259,0.06163 -6.25,-0.0033 z m 8.803136,-2.182349 c 1.428292,-0.17754 2.231626,-0.521518 2.981044,-1.276446 0.888046,-0.894575 1.221703,-1.792632 1.345633,-3.621849 C 21.879188,15.479008 21.828132,6.8411875 21.723019,6.1875 21.632248,5.6229996 21.330325,4.6903033 21.124113,4.3373692 20.767588,3.7271713 20.135113,3.1250793 19.518537,2.8089214 19.038734,2.5628964 18.235835,2.3370158 17.52367,2.2477033 16.684083,2.1424109 8.0154781,2.0879133 6.9030094,2.1809336 5.2505065,2.3191094 4.3014356,2.6756308 3.5122431,3.4546851 3.0055982,3.9548213 2.7711717,4.3128382 2.5483173,4.926795 2.1318162,6.0742427 2.0742094,7.1068356 2.1103208,12.77782 c 0.030241,4.749052 0.053039,5.128184 0.3633226,6.042068 0.4526035,1.333059 1.410076,2.258451 2.7663248,2.67364 0.6172213,0.18895 1.1301093,0.261282 2.2600318,0.318731 1.4762138,0.07506 9.248817,0.02789 9.959386,-0.06044 z"
     id="path86" />
  <path
     style="fill:#ffffff;stroke-width:0.0625"
     d="M 10.927598,18.036718 C 9.6648646,17.795773 8.5679564,17.209394 7.6589164,16.289368 6.8547945,15.475526 6.3442178,14.573141 6.0525865,13.450363 c -0.2252251,-0.867114 -0.2252251,-2.033612 0,-2.900726 C 6.3442178,9.4268593 6.8547945,8.5244735 7.6589164,7.7106326 8.4518921,6.9080725 9.4042979,6.3549297 10.522099,6.0477394 c 0.690159,-0.189667 2.265644,-0.189667 2.955802,0 2.177178,0.5983246 3.855032,2.2417584 4.424587,4.3338206 0.899533,3.304118 -1.076929,6.683508 -4.424587,7.565239 -0.621879,0.163795 -1.922761,0.209661 -2.550303,0.08992 z m 2.074896,-2.131407 c 1.091669,-0.277498 2.088366,-1.085099 2.582832,-2.092811 0.590542,-1.203511 0.590542,-2.421488 0,-3.625 C 15.38078,9.7706391 15.215683,9.5473303 14.818576,9.150401 14.007786,8.339975 13.17482,8 12,8 10.823181,8 9.9942886,8.3390692 9.1737507,9.1561146 8.7623088,9.5658053 8.6098169,9.7723318 8.4079933,10.193214 c -0.5832762,1.216361 -0.5810518,2.4215 0.00668,3.619286 0.4826959,0.983724 1.4961351,1.812781 2.5540767,2.089395 0.46294,0.121043 1.56373,0.122891 2.033744,0.0034 z"
     id="path125" />
  <path
     style="fill:#ffffff;stroke-width:0.0625"
     d="m 17.773829,6.8254146 c -1.017365,-0.5314782 -1.013094,-1.92902 0.0075,-2.4660396 0.428002,-0.2251993 0.800169,-0.2280215 1.238896,-0.00939 1.027326,0.5119384 1.03359,1.9400261 0.01087,2.4781446 -0.438891,0.2309283 -0.811606,0.2301248 -1.257304,-0.00271 z"
     id="path164" />
</svg>
