<?xml version="1.0" encoding="UTF-8" standalone="no"?>
<svg
   role="img"
   viewBox="0 0 24 24"
   version="1.1"
   id="svg6"
   sodipodi:docname="twitter.svg"
   inkscape:version="1.1.1 (3bf5ae0d25, 2021-09-20, custom)"
   xmlns:inkscape="http://www.inkscape.org/namespaces/inkscape"
   xmlns:sodipodi="http://sodipodi.sourceforge.net/DTD/sodipodi-0.dtd"
   xmlns="http://www.w3.org/2000/svg"
   xmlns:svg="http://www.w3.org/2000/svg">
  <defs
     id="defs10" />
  <sodipodi:namedview
     id="namedview8"
     pagecolor="#ffffff"
     bordercolor="#666666"
     borderopacity="1.0"
     inkscape:pageshadow="2"
     inkscape:pageopacity="0.0"
     inkscape:pagecheckerboard="0"
     showgrid="false"
     inkscape:zoom="32.041667"
     inkscape:cx="11.984395"
     inkscape:cy="11.984395"
     inkscape:window-width="1920"
     inkscape:window-height="1029"
     inkscape:window-x="0"
     inkscape:window-y="0"
     inkscape:window-maximized="1"
     inkscape:current-layer="svg6" />
  <title
     id="title2">Twitter</title>
  <path
     d="M23.953 4.57a10 10 0 01-2.825.775 4.958 4.958 0 002.163-2.723c-.951.555-2.005.959-3.127 1.184a4.92 4.92 0 00-8.384 4.482C7.69 8.095 4.067 6.13 1.64 3.162a4.822 4.822 0 00-.666 2.475c0 1.71.87 3.213 2.188 4.096a4.904 4.904 0 01-2.228-.616v.06a4.923 4.923 0 003.946 4.827 4.996 4.996 0 01-2.212.085 4.936 4.936 0 004.604 3.417 9.867 9.867 0 01-6.102 2.105c-.39 0-.779-.023-1.17-.067a13.995 13.995 0 007.557 2.209c9.053 0 13.998-7.496 13.998-13.985 0-.21 0-.42-.015-.63A9.935 9.935 0 0024 4.59z"
     id="path4" />
  <path
     style="fill:#ffffff;stroke-width:0.0312094"
     d="M 6.9596879,21.716599 C 5.0506773,21.646183 3.1624671,21.165264 1.4044213,20.301698 0.87740729,20.042824 0.090847,19.604962 0.11558,19.584225 c 0.005092,-0.0043 0.24800908,0.0069 0.53981662,0.02485 0.80113268,0.04925 1.69980448,-0.01979 2.55916778,-0.19661 1.3285669,-0.273356 2.6553799,-0.863211 3.7914532,-1.68555 0.1541405,-0.111573 0.280506,-0.213394 0.2808122,-0.226268 3.12e-4,-0.01287 -0.075671,-0.02341 -0.1688368,-0.02341 -0.3925064,0 -1.0696138,-0.141003 -1.5020904,-0.312802 C 4.3250047,16.651642 3.3380795,15.689243 2.8162154,14.43433 2.6937152,14.139757 2.6832107,14.093661 2.7438896,14.116946 c 0.135652,0.05205 0.8927255,0.08445 1.2362392,0.05289 0.3788327,-0.0348 0.8407418,-0.115833 0.8819276,-0.154723 0.013533,-0.01278 -0.098821,-0.0555 -0.2496749,-0.09494 C 3.5416166,13.640262 2.5257184,12.942565 1.8795512,12.04333 1.633488,11.700898 1.302348,11.048216 1.1889458,10.682136 1.0702744,10.299047 0.98524313,9.8445594 0.96240399,9.4712829 L 0.94205496,9.1387041 1.1888428,9.2627276 c 0.48196,0.2422099 1.1788973,0.4303381 1.7073521,0.4608755 L 3.183355,9.7401968 3.0916401,9.6685379 C 2.4850351,9.1945841 2.1363315,8.8312141 1.8042877,8.3270406 0.93681825,7.0098794 0.74981434,5.3494212 1.3065811,3.9077686 1.4240658,3.6035617 1.5907673,3.2596642 1.6335663,3.233213 c 0.015225,-0.00941 0.1243815,0.09841 0.242571,0.239599 0.1181895,0.1411888 0.4325753,0.4745779 0.6986351,0.7408647 2.1550877,2.1569261 4.8845396,3.5287573 7.8803646,3.9606955 0.498254,0.071838 1.290753,0.1421568 1.31613,0.1167802 0.0093,-0.00935 -0.0046,-0.1477355 -0.03109,-0.3075224 -0.22736,-1.3736558 0.114724,-2.7291609 0.963327,-3.8171801 0.460955,-0.5910034 1.019413,-1.0474763 1.6983,-1.3881579 0.967413,-0.4854705 2.098016,-0.631614 3.164077,-0.4089936 0.849043,0.1773013 1.707582,0.6194502 2.309917,1.1896105 0.154443,0.1461932 0.289306,0.2486334 0.327329,0.2486334 0.03557,0 0.251355,-0.048043 0.479532,-0.1067618 0.772751,-0.1988598 1.386391,-0.4290684 2.096161,-0.7863796 0.54724,-0.2754903 0.534933,-0.2917676 0.238747,0.3157682 -0.391794,0.8036469 -0.893092,1.3962389 -1.612566,1.9062363 -0.161786,0.114682 -0.28913,0.2135395 -0.282986,0.2196833 0.01883,0.018827 0.752286,-0.1083043 1.10722,-0.1919164 0.441464,-0.1039958 0.940089,-0.2607011 1.372842,-0.4314494 0.193108,-0.076193 0.351105,-0.1290042 0.351105,-0.1173574 0,0.011647 -0.131819,0.1962895 -0.292931,0.4103174 -0.543038,0.7213952 -1.15799,1.3482674 -1.842026,1.8777348 l -0.278,0.2151814 -0.0081,0.7397902 c -0.01494,1.3615983 -0.207017,2.6018987 -0.609905,3.9383017 -1.077694,3.574779 -3.517891,6.618986 -6.659529,8.307929 -2.189781,1.177226 -4.6095248,1.711332 -7.3029911,1.611979 z"
     id="path86" />
</svg>
